<?xml version="1.0" encoding="UTF-8" standalone="no"?>
<svg
   xmlns:dc="http://purl.org/dc/elements/1.1/"
   xmlns:cc="http://creativecommons.org/ns#"
   xmlns:rdf="http://www.w3.org/1999/02/22-rdf-syntax-ns#"
   xmlns:svg="http://www.w3.org/2000/svg"
   xmlns="http://www.w3.org/2000/svg"
   xmlns:sodipodi="http://sodipodi.sourceforge.net/DTD/sodipodi-0.dtd"
   xmlns:inkscape="http://www.inkscape.org/namespaces/inkscape"
   width="375"
   height="125"
   viewBox="0 0 396.875 132.29166"
   version="1.1"
   id="svg8"
   inkscape:version="1.0.1 (3bc2e813f5, 2020-09-07)"
   sodipodi:docname="sorbetto_banner.svg">
  <defs
     id="defs2">
    <rect
       x="174.33821"
       y="77.247635"
       width="467.21024"
       height="182.91187"
       id="rect850" />
  </defs>
  <sodipodi:namedview
     id="base"
     pagecolor="#ffffff"
     bordercolor="#666666"
     borderopacity="1.0"
     inkscape:pageopacity="0.0"
     inkscape:pageshadow="2"
     inkscape:zoom="0.98901497"
     inkscape:cx="593.60732"
     inkscape:cy="257.26878"
     inkscape:document-units="mm"
     inkscape:current-layer="text848"
     inkscape:document-rotation="0"
     showgrid="false"
     inkscape:pagecheckerboard="true"
     inkscape:object-paths="true"
     inkscape:snap-nodes="true"
     inkscape:window-width="1920"
     inkscape:window-height="1010"
     inkscape:window-x="0"
     inkscape:window-y="34"
     inkscape:window-maximized="1"
     units="px"
     inkscape:snap-page="true"
     scale-x="2" />
  <metadata
     id="metadata5">
    <rdf:RDF>
      <cc:Work
         rdf:about="">
        <dc:format>image/svg+xml</dc:format>
        <dc:type
           rdf:resource="http://purl.org/dc/dcmitype/StillImage" />
        <dc:title></dc:title>
      </cc:Work>
    </rdf:RDF>
  </metadata>
  <g
     inkscape:label="Layer 1"
     inkscape:groupmode="layer"
     id="layer1"
     transform="translate(-22.211024,-56.69306)">
    <g
       id="g991"
       transform="matrix(1.0879079,0,0,1.0879079,-20.723966,-10.78699)">
      <path
         style="fill:#86d3b6;fill-opacity:1;stroke:#ffffff;stroke-width:2.82222;stroke-linecap:round;stroke-linejoin:round;stroke-miterlimit:4;stroke-dasharray:none;stroke-opacity:1;paint-order:normal"
         d="m 85.557185,141.54853 -34.918342,20.88735 45.081408,15.40954 30.354579,-25.44448 z"
         id="path871"
         sodipodi:nodetypes="ccccc" />
      <circle
         style="fill:#ffdd59;fill-opacity:1;stroke:#ffffff;stroke-width:2.82222;stroke-linecap:round;stroke-linejoin:bevel;stroke-miterlimit:4;stroke-dasharray:none;stroke-opacity:1"
         id="path838-1"
         cx="93.170494"
         cy="81.340309"
         r="13.770036" />
      <circle
         style="fill:#ff6969;fill-opacity:1;stroke:#ffffff;stroke-width:2.82222;stroke-linecap:round;stroke-linejoin:bevel;stroke-miterlimit:4;stroke-dasharray:none;stroke-opacity:1"
         id="path838"
         cx="80.9758"
         cy="94.685081"
         r="15.648762" />
      <circle
         style="fill:#ae9ddd;fill-opacity:1;stroke:#ffffff;stroke-width:2.82222;stroke-linecap:round;stroke-linejoin:bevel;stroke-miterlimit:4;stroke-dasharray:none;stroke-opacity:1"
         id="path838-2"
         cx="99.65271"
         cy="96.985008"
         r="14.362954" />
      <path
         id="path833"
         style="fill:#ecab4f;fill-opacity:1;stroke:#ffffff;stroke-width:2.29197;stroke-linecap:round;stroke-linejoin:round;stroke-miterlimit:4;stroke-dasharray:none;stroke-opacity:1;paint-order:normal"
         d="m 71.85724,107.26085 18.95955,48.79955 18.95996,-48.79955 H 90.81679 Z" />
      <g
         id="g987"
         style="stroke:#db9028;stroke-opacity:1"
         transform="matrix(0.92813308,0,0,0.92813308,2.4195966,-7.5969692)">
        <path
           style="fill:none;stroke:#db9028;stroke-width:1.05833;stroke-linecap:butt;stroke-linejoin:miter;stroke-miterlimit:4;stroke-dasharray:none;stroke-opacity:1"
           d="m 78.344507,132.83772 23.086033,-9.08627"
           id="path889" />
        <path
           style="fill:none;stroke:#db9028;stroke-width:1.05833;stroke-linecap:butt;stroke-linejoin:miter;stroke-miterlimit:4;stroke-dasharray:none;stroke-opacity:1"
           d="M 81.962383,142.14969 113.31636,129.8093"
           id="path891" />
        <path
           style="fill:none;stroke:#db9028;stroke-width:1.05833;stroke-linecap:butt;stroke-linejoin:miter;stroke-miterlimit:4;stroke-dasharray:none;stroke-opacity:1"
           d="m 85.580259,151.46166 22.811911,-8.97838"
           id="path889-7" />
        <path
           style="fill:none;stroke:#db9028;stroke-width:1.05833;stroke-linecap:butt;stroke-linejoin:miter;stroke-miterlimit:4;stroke-dasharray:none;stroke-opacity:1"
           d="m 89.198135,160.77363 14.269855,-5.61637"
           id="path891-4" />
        <path
           style="fill:none;stroke:#db9028;stroke-width:1.05833;stroke-linecap:butt;stroke-linejoin:miter;stroke-miterlimit:4;stroke-dasharray:none;stroke-opacity:1"
           d="m 94.4682,123.63617 13.95462,18.86978"
           id="path889-1" />
        <path
           style="fill:none;stroke:#db9028;stroke-width:1.05833;stroke-linecap:butt;stroke-linejoin:miter;stroke-miterlimit:4;stroke-dasharray:none;stroke-opacity:1"
           d="m 82.114593,123.75145 21.998117,29.74639"
           id="path891-8" />
        <path
           style="fill:none;stroke:#db9028;stroke-width:1.05833;stroke-linecap:butt;stroke-linejoin:miter;stroke-miterlimit:4;stroke-dasharray:none;stroke-opacity:1"
           d="M 82.994985,141.74328 99.833259,164.5124"
           id="path889-7-5" />
        <path
           style="fill:none;stroke:#db9028;stroke-width:1.05833;stroke-linecap:butt;stroke-linejoin:miter;stroke-miterlimit:4;stroke-dasharray:none;stroke-opacity:1"
           d="m 106.9923,123.75145 4.89567,6.62004"
           id="path889-1-7" />
      </g>
      <path
         id="path919"
         style="fill:none;fill-opacity:1;stroke:#ffffff;stroke-width:2.82222;stroke-linecap:round;stroke-linejoin:round;stroke-miterlimit:4;stroke-dasharray:none;stroke-opacity:1;paint-order:normal"
         d="m 71.85724,107.26085 18.95955,48.79955 18.95996,-48.79955 H 90.81679 Z" />
    </g>
    <g
       aria-label="Sorbetto"
       transform="translate(-32.580724,12.99416)"
       id="text848"
       style="font-size:52.9167px;line-height:1.25;font-family:sans-serif;white-space:pre;shape-inside:url(#rect850);fill:#ecab4f;fill-opacity:1;stroke:#9a9a9a;stroke-width:1.05833;stroke-miterlimit:4;stroke-dasharray:none;stroke-opacity:1">
      <path
         d="m 202.80707,117.46474 c 0,-4.86834 -0.84666,-7.56709 -11.37709,-9.52501 -3.96875,-0.74083 -4.23333,-0.84667 -5.29167,-1.37583 -1.16416,-0.58209 -1.95791,-1.79917 -1.95791,-2.91042 0,-2.27542 2.64583,-4.02167 5.97958,-4.02167 3.28084,0 5.82084,1.42875 6.29709,3.54542 0.58208,2.75167 1.32292,2.8575 2.64584,2.8575 1.27,0 2.59291,-0.635 2.59291,-3.54542 v -4.656667 c 0,-2.751669 -1.05833,-3.492503 -2.59291,-3.492503 -1.05834,0 -1.53459,0.423334 -2.06376,1.746252 -1.85208,-1.164168 -4.18041,-1.746252 -6.87917,-1.746252 -6.56167,0 -11.48292,4.02167 -11.48292,9.36626 0,5.18583 3.33375,8.09625 11.16542,9.41917 6.66751,1.16417 7.46126,2.2225 7.46126,4.23333 0,2.27542 -3.06917,4.02167 -6.98501,4.02167 -3.4925,0 -6.82625,-1.53458 -7.35542,-3.43958 -0.68791,-2.38125 -1.48167,-2.54 -2.69875,-2.54 -1.42875,0 -2.64583,0.635 -2.64583,3.4925 v 3.4925 c 0,2.38125 0.84666,3.4925 2.69875,3.4925 0.84666,0 1.21708,-0.21166 2.11667,-1.27 2.59291,1.37584 5.3975,2.06375 8.255,2.06375 7.24959,0 12.11792,-3.70417 12.11792,-9.2075 z"
         style="font-style:normal;font-variant:normal;font-weight:bold;font-stretch:normal;font-size:52.9167px;font-family:'TeX Gyre Cursor';-inkscape-font-specification:'TeX Gyre Cursor Bold';fill:#ffffff;fill-opacity:1"
         id="path852" />
      <path
         d="m 235.61545,114.44849 c 0,-6.82626 -6.03251,-12.32959 -13.49376,-12.32959 -7.83167,0 -13.81126,5.34458 -13.81126,12.32959 0,6.87917 6.03251,12.32959 13.65251,12.32959 7.62,0 13.65251,-5.45042 13.65251,-12.32959 z m -5.29167,0 c 0,3.96875 -3.65125,7.03792 -8.36084,7.03792 -4.70959,0 -8.36084,-3.06917 -8.36084,-7.03792 0,-4.02167 3.65125,-7.03793 8.46667,-7.03793 4.60376,0 8.25501,3.12209 8.25501,7.03793 z"
         style="font-style:normal;font-variant:normal;font-weight:bold;font-stretch:normal;font-size:52.9167px;font-family:'TeX Gyre Cursor';-inkscape-font-specification:'TeX Gyre Cursor Bold';fill:#ffffff;fill-opacity:1"
         id="path854" />
      <path
         d="m 268.05341,106.66973 c 0,-2.43417 -4.12751,-4.49792 -6.66751,-4.49792 -2.59292,0 -4.60375,0.89959 -8.83709,4.07459 v -3.43959 h -7.14375 c -2.59292,0 -3.4925,1.16417 -3.4925,2.64584 0,1.42875 0.79375,2.64583 3.4925,2.64583 h 1.85208 v 12.54126 h -3.06917 c -2.80458,0 -3.4925,1.16417 -3.4925,2.64583 0,1.42876 0.79375,2.64584 3.4925,2.64584 h 15.71626 c 2.80459,0 3.54542,-1.16417 3.54542,-2.64584 0,-1.37583 -0.635,-2.64583 -3.54542,-2.64583 h -7.35542 v -7.77876 c 5.02709,-4.1275 7.03792,-5.3975 8.73126,-5.3975 1.27,0 2.80458,1.905 4.1275,1.905 1.42875,0 2.64584,-1.21708 2.64584,-2.69875 z"
         style="font-style:normal;font-variant:normal;font-weight:bold;font-stretch:normal;font-size:52.9167px;font-family:'TeX Gyre Cursor';-inkscape-font-specification:'TeX Gyre Cursor Bold';fill:#ffffff;fill-opacity:1"
         id="path856" />
      <path
         d="m 299.80345,114.39557 c 0,-6.93209 -5.23876,-12.32959 -13.07043,-12.32959 -3.175,0 -5.66208,0.84667 -7.9375,2.64583 V 92.91139 h -6.13834 c -2.75167,0 -3.4925,1.164167 -3.4925,2.645835 0,1.42875 0.68792,2.645834 3.4925,2.645834 h 0.84667 v 22.436681 h -0.84667 c -2.75167,0 -3.4925,1.16417 -3.4925,2.64583 0,1.42876 0.68792,2.64584 3.4925,2.64584 h 6.13834 v -1.85208 c 2.75167,1.905 4.86833,2.59291 7.99042,2.59291 7.83167,0 13.01751,-5.50333 13.01751,-12.27667 z m -5.29167,-0.0529 c 0,3.91584 -3.12209,7.03792 -7.83167,7.03792 -4.65667,0 -7.88459,-2.91042 -7.88459,-7.09083 0,-3.70417 3.06917,-6.93209 7.88459,-6.93209 4.60375,0 7.83167,3.12208 7.83167,6.985 z"
         style="font-style:normal;font-variant:normal;font-weight:bold;font-stretch:normal;font-size:52.9167px;font-family:'TeX Gyre Cursor';-inkscape-font-specification:'TeX Gyre Cursor Bold';fill:#ffffff;fill-opacity:1"
         id="path858" />
      <path
         d="m 330.44223,122.38599 c 0,-1.48167 -1.11125,-2.64583 -2.54,-2.64583 -0.47625,0 -1.11125,0.10583 -1.74625,0.26458 -4.86833,1.27 -6.19125,1.48167 -8.62542,1.48167 -4.65667,0 -7.46125,-1.48167 -8.67834,-4.65667 h 21.59001 v -2.06375 c 0,-7.30251 -5.82083,-12.64709 -13.70542,-12.64709 -7.72584,0 -13.65251,5.3975 -13.65251,12.3825 0,7.19667 5.76792,12.27668 13.97001,12.27668 5.97959,0 13.38792,-1.48167 13.38792,-4.39209 z m -5.87375,-10.21292 h -15.55751 c 0.79375,-2.8575 3.91584,-4.76251 7.77876,-4.76251 3.86292,0 6.93208,1.85209 7.77875,4.76251 z"
         style="font-style:normal;font-variant:normal;font-weight:bold;font-stretch:normal;font-size:52.9167px;font-family:'TeX Gyre Cursor';-inkscape-font-specification:'TeX Gyre Cursor Bold';fill:#ffffff;fill-opacity:1"
         id="path860" />
      <path
         d="m 361.08102,121.80391 c 0,-1.48167 -1.11125,-2.69875 -2.54,-2.69875 -0.58208,0 -0.9525,0.10583 -1.85208,0.58208 -2.38125,1.21708 -4.92126,1.79917 -7.72584,1.79917 -3.175,0 -4.55084,-0.42334 -4.55084,-3.01626 v -10.37167 h 9.57792 c 2.69876,0 3.49251,-1.16417 3.49251,-2.64583 0,-1.42875 -0.68792,-2.64584 -3.49251,-2.64584 h -9.57792 v -4.656667 c 0,-2.751669 -1.16416,-3.492502 -2.64583,-3.492502 -1.48167,0 -2.64584,0.79375 -2.64584,3.492502 v 4.656667 h -1.85208 c -2.80459,0 -3.4925,1.16417 -3.4925,2.64584 0,1.42875 0.79375,2.64583 3.4925,2.64583 h 1.85208 v 11.37709 c 0,4.49792 3.75709,7.30251 9.78959,7.30251 4.65667,0 12.17084,-2.11667 12.17084,-4.97417 z"
         style="font-style:normal;font-variant:normal;font-weight:bold;font-stretch:normal;font-size:52.9167px;font-family:'TeX Gyre Cursor';-inkscape-font-specification:'TeX Gyre Cursor Bold';fill:#ffffff;fill-opacity:1"
         id="path862" />
      <path
         d="m 392.83107,121.80391 c 0,-1.48167 -1.11125,-2.69875 -2.54,-2.69875 -0.58209,0 -0.9525,0.10583 -1.85209,0.58208 -2.38125,1.21708 -4.92125,1.79917 -7.72584,1.79917 -3.175,0 -4.55083,-0.42334 -4.55083,-3.01626 v -10.37167 h 9.57792 c 2.69875,0 3.4925,-1.16417 3.4925,-2.64583 0,-1.42875 -0.68791,-2.64584 -3.4925,-2.64584 h -9.57792 v -4.656667 c 0,-2.751669 -1.16417,-3.492502 -2.64584,-3.492502 -1.48166,0 -2.64583,0.79375 -2.64583,3.492502 v 4.656667 h -1.85209 c -2.80458,0 -3.4925,1.16417 -3.4925,2.64584 0,1.42875 0.79375,2.64583 3.4925,2.64583 h 1.85209 v 11.37709 c 0,4.49792 3.75708,7.30251 9.78959,7.30251 4.65667,0 12.17084,-2.11667 12.17084,-4.97417 z"
         style="font-style:normal;font-variant:normal;font-weight:bold;font-stretch:normal;font-size:52.9167px;font-family:'TeX Gyre Cursor';-inkscape-font-specification:'TeX Gyre Cursor Bold';fill:#ffffff;fill-opacity:1"
         id="path864" />
      <path
         d="m 426.11568,114.44849 c 0,-6.82626 -6.0325,-12.32959 -13.49376,-12.32959 -7.83167,0 -13.81125,5.34458 -13.81125,12.32959 0,6.87917 6.0325,12.32959 13.6525,12.32959 7.62001,0 13.65251,-5.45042 13.65251,-12.32959 z m -5.29167,0 c 0,3.96875 -3.65125,7.03792 -8.36084,7.03792 -4.70958,0 -8.36083,-3.06917 -8.36083,-7.03792 0,-4.02167 3.65125,-7.03793 8.46667,-7.03793 4.60375,0 8.255,3.12209 8.255,7.03793 z"
         style="font-style:normal;font-variant:normal;font-weight:bold;font-stretch:normal;font-size:52.9167px;font-family:'TeX Gyre Cursor';-inkscape-font-specification:'TeX Gyre Cursor Bold';fill:#ffffff;fill-opacity:1"
         id="path866" />
    </g>
  </g>
</svg>
